<mxfile host="app.diagrams.net" agent="Mozilla/5.0 (Windows NT 10.0; Win64; x64; rv:129.0) Gecko/20100101 Firefox/129.0" version="24.7.10">
  <diagram name="Page-1" id="LHdrXskJMCQ-rGoqfWj5">
    <mxGraphModel dx="1434" dy="794" grid="0" gridSize="10" guides="1" tooltips="1" connect="1" arrows="1" fold="1" page="1" pageScale="1" pageWidth="850" pageHeight="1100" math="0" shadow="0">
      <root>
        <mxCell id="0" />
        <mxCell id="1" parent="0" />
        <mxCell id="RokHzbXK8KdU9gQBQNfr-11" value="" style="rounded=1;whiteSpace=wrap;html=1;" vertex="1" parent="1">
          <mxGeometry x="84.5" y="180" width="630" height="500" as="geometry" />
        </mxCell>
        <mxCell id="RokHzbXK8KdU9gQBQNfr-13" value="VPC" style="sketch=0;outlineConnect=0;gradientColor=none;html=1;whiteSpace=wrap;fontSize=12;fontStyle=0;shape=mxgraph.aws4.group;grIcon=mxgraph.aws4.group_vpc;strokeColor=#879196;fillColor=none;verticalAlign=top;align=left;spacingLeft=30;fontColor=#879196;dashed=0;" vertex="1" parent="1">
          <mxGeometry x="109.5" y="265" width="580" height="365" as="geometry" />
        </mxCell>
        <mxCell id="RokHzbXK8KdU9gQBQNfr-20" style="edgeStyle=orthogonalEdgeStyle;rounded=0;orthogonalLoop=1;jettySize=auto;html=1;startArrow=classic;startFill=1;fillColor=#f0a30a;strokeColor=#BD7000;dashed=1;dashPattern=12 12;" edge="1" parent="1" source="RokHzbXK8KdU9gQBQNfr-1" target="RokHzbXK8KdU9gQBQNfr-4">
          <mxGeometry relative="1" as="geometry" />
        </mxCell>
        <mxCell id="RokHzbXK8KdU9gQBQNfr-23" value="Manage Agents" style="edgeLabel;html=1;align=center;verticalAlign=middle;resizable=0;points=[];" vertex="1" connectable="0" parent="RokHzbXK8KdU9gQBQNfr-20">
          <mxGeometry x="-0.0525" y="1" relative="1" as="geometry">
            <mxPoint x="1" as="offset" />
          </mxGeometry>
        </mxCell>
        <mxCell id="RokHzbXK8KdU9gQBQNfr-1" value="Fleet Server" style="sketch=0;outlineConnect=0;fontColor=#232F3E;gradientColor=none;fillColor=#B9E0A5;strokeColor=none;dashed=0;verticalLabelPosition=bottom;verticalAlign=top;align=center;html=1;fontSize=12;fontStyle=0;aspect=fixed;pointerEvents=1;shape=mxgraph.aws4.traditional_server;" vertex="1" parent="1">
          <mxGeometry x="377" y="511" width="45" height="78" as="geometry" />
        </mxCell>
        <mxCell id="RokHzbXK8KdU9gQBQNfr-21" style="edgeStyle=orthogonalEdgeStyle;rounded=0;orthogonalLoop=1;jettySize=auto;html=1;startArrow=classic;startFill=1;fillColor=#e3c800;strokeColor=#B09500;dashed=1;dashPattern=12 12;" edge="1" parent="1" source="RokHzbXK8KdU9gQBQNfr-2" target="RokHzbXK8KdU9gQBQNfr-4">
          <mxGeometry relative="1" as="geometry" />
        </mxCell>
        <mxCell id="RokHzbXK8KdU9gQBQNfr-22" value="Alerts/Tickets" style="edgeLabel;html=1;align=center;verticalAlign=middle;resizable=0;points=[];" vertex="1" connectable="0" parent="RokHzbXK8KdU9gQBQNfr-21">
          <mxGeometry x="-0.0476" relative="1" as="geometry">
            <mxPoint as="offset" />
          </mxGeometry>
        </mxCell>
        <mxCell id="RokHzbXK8KdU9gQBQNfr-2" value="osTicket Server" style="sketch=0;outlineConnect=0;fontColor=#232F3E;gradientColor=none;fillColor=#CDA2BE;strokeColor=none;dashed=0;verticalLabelPosition=bottom;verticalAlign=top;align=center;html=1;fontSize=12;fontStyle=0;aspect=fixed;pointerEvents=1;shape=mxgraph.aws4.traditional_server;" vertex="1" parent="1">
          <mxGeometry x="590" y="300" width="45" height="78" as="geometry" />
        </mxCell>
        <mxCell id="RokHzbXK8KdU9gQBQNfr-14" style="edgeStyle=orthogonalEdgeStyle;rounded=0;orthogonalLoop=1;jettySize=auto;html=1;" edge="1" parent="1" source="RokHzbXK8KdU9gQBQNfr-3" target="RokHzbXK8KdU9gQBQNfr-1">
          <mxGeometry relative="1" as="geometry" />
        </mxCell>
        <mxCell id="RokHzbXK8KdU9gQBQNfr-16" value="Managed" style="edgeLabel;html=1;align=center;verticalAlign=middle;resizable=0;points=[];" vertex="1" connectable="0" parent="RokHzbXK8KdU9gQBQNfr-14">
          <mxGeometry x="-0.0789" y="-1" relative="1" as="geometry">
            <mxPoint as="offset" />
          </mxGeometry>
        </mxCell>
        <mxCell id="RokHzbXK8KdU9gQBQNfr-26" style="rounded=0;orthogonalLoop=1;jettySize=auto;html=1;fillColor=#b1ddf0;strokeColor=#10739e;dashed=1;dashPattern=12 12;" edge="1" parent="1" source="RokHzbXK8KdU9gQBQNfr-3" target="RokHzbXK8KdU9gQBQNfr-4">
          <mxGeometry relative="1" as="geometry" />
        </mxCell>
        <mxCell id="RokHzbXK8KdU9gQBQNfr-28" value="Forward Logs Via Agent" style="edgeLabel;html=1;align=center;verticalAlign=middle;resizable=0;points=[];" vertex="1" connectable="0" parent="RokHzbXK8KdU9gQBQNfr-26">
          <mxGeometry x="-0.0606" y="-1" relative="1" as="geometry">
            <mxPoint as="offset" />
          </mxGeometry>
        </mxCell>
        <mxCell id="RokHzbXK8KdU9gQBQNfr-3" value="&lt;div&gt;Windows Server&lt;/div&gt;&lt;div&gt;RDP Enabled&lt;/div&gt;&lt;div&gt;&lt;br/&gt;&lt;/div&gt;" style="sketch=0;outlineConnect=0;fontColor=#232F3E;gradientColor=none;fillColor=#232F3D;strokeColor=none;dashed=0;verticalLabelPosition=bottom;verticalAlign=top;align=center;html=1;fontSize=12;fontStyle=0;aspect=fixed;pointerEvents=1;shape=mxgraph.aws4.traditional_server;" vertex="1" parent="1">
          <mxGeometry x="150" y="510.84" width="45" height="78" as="geometry" />
        </mxCell>
        <mxCell id="RokHzbXK8KdU9gQBQNfr-4" value="Elastic &amp;amp;Kibana" style="sketch=0;outlineConnect=0;fontColor=#232F3E;gradientColor=none;fillColor=#A9C4EB;strokeColor=none;dashed=0;verticalLabelPosition=bottom;verticalAlign=top;align=center;html=1;fontSize=12;fontStyle=0;aspect=fixed;pointerEvents=1;shape=mxgraph.aws4.traditional_server;" vertex="1" parent="1">
          <mxGeometry x="377" y="300" width="45" height="78" as="geometry" />
        </mxCell>
        <mxCell id="RokHzbXK8KdU9gQBQNfr-15" style="edgeStyle=orthogonalEdgeStyle;rounded=0;orthogonalLoop=1;jettySize=auto;html=1;" edge="1" parent="1" source="RokHzbXK8KdU9gQBQNfr-5" target="RokHzbXK8KdU9gQBQNfr-1">
          <mxGeometry relative="1" as="geometry" />
        </mxCell>
        <mxCell id="RokHzbXK8KdU9gQBQNfr-18" value="Managed" style="edgeLabel;html=1;align=center;verticalAlign=middle;resizable=0;points=[];" vertex="1" connectable="0" parent="RokHzbXK8KdU9gQBQNfr-15">
          <mxGeometry x="-0.0595" y="1" relative="1" as="geometry">
            <mxPoint as="offset" />
          </mxGeometry>
        </mxCell>
        <mxCell id="RokHzbXK8KdU9gQBQNfr-27" style="rounded=0;orthogonalLoop=1;jettySize=auto;html=1;fillColor=#b1ddf0;strokeColor=#10739e;dashed=1;dashPattern=12 12;" edge="1" parent="1" source="RokHzbXK8KdU9gQBQNfr-5" target="RokHzbXK8KdU9gQBQNfr-4">
          <mxGeometry relative="1" as="geometry" />
        </mxCell>
        <mxCell id="RokHzbXK8KdU9gQBQNfr-29" value="Forward Logs Via Agent" style="edgeLabel;html=1;align=center;verticalAlign=middle;resizable=0;points=[];" vertex="1" connectable="0" parent="RokHzbXK8KdU9gQBQNfr-27">
          <mxGeometry x="-0.078" relative="1" as="geometry">
            <mxPoint as="offset" />
          </mxGeometry>
        </mxCell>
        <mxCell id="RokHzbXK8KdU9gQBQNfr-5" value="&lt;div&gt;Ubuntu Server&lt;/div&gt;&lt;div&gt;SSH Enabled&lt;br&gt;&lt;/div&gt;" style="sketch=0;outlineConnect=0;fontColor=#232F3E;gradientColor=none;fillColor=#232F3D;strokeColor=none;dashed=0;verticalLabelPosition=bottom;verticalAlign=top;align=center;html=1;fontSize=12;fontStyle=0;aspect=fixed;pointerEvents=1;shape=mxgraph.aws4.traditional_server;" vertex="1" parent="1">
          <mxGeometry x="620" y="511" width="45" height="78" as="geometry" />
        </mxCell>
        <mxCell id="RokHzbXK8KdU9gQBQNfr-6" value="&lt;div&gt;&lt;font color=&quot;#000000&quot;&gt;C2 Server&lt;/font&gt;&lt;/div&gt;&lt;div&gt;&lt;font color=&quot;#000000&quot;&gt;Mythic&lt;/font&gt;&lt;/div&gt;" style="sketch=0;outlineConnect=0;fillColor=#FF0000;strokeColor=#6F0000;dashed=0;verticalLabelPosition=bottom;verticalAlign=top;align=center;html=1;fontSize=12;fontStyle=0;aspect=fixed;pointerEvents=1;shape=mxgraph.aws4.traditional_server;fontColor=#ffffff;fillStyle=auto;" vertex="1" parent="1">
          <mxGeometry x="740" y="136" width="45" height="78" as="geometry" />
        </mxCell>
        <mxCell id="RokHzbXK8KdU9gQBQNfr-31" value="" style="edgeStyle=orthogonalEdgeStyle;rounded=0;orthogonalLoop=1;jettySize=auto;html=1;" edge="1" parent="1" source="RokHzbXK8KdU9gQBQNfr-7" target="RokHzbXK8KdU9gQBQNfr-8">
          <mxGeometry relative="1" as="geometry" />
        </mxCell>
        <mxCell id="RokHzbXK8KdU9gQBQNfr-7" value="" style="ellipse;shape=cloud;whiteSpace=wrap;html=1;" vertex="1" parent="1">
          <mxGeometry x="339.5" y="64" width="120" height="80" as="geometry" />
        </mxCell>
        <mxCell id="RokHzbXK8KdU9gQBQNfr-33" value="" style="edgeStyle=orthogonalEdgeStyle;rounded=0;orthogonalLoop=1;jettySize=auto;html=1;" edge="1" parent="1" source="RokHzbXK8KdU9gQBQNfr-8">
          <mxGeometry relative="1" as="geometry">
            <mxPoint x="400" y="260" as="targetPoint" />
          </mxGeometry>
        </mxCell>
        <mxCell id="RokHzbXK8KdU9gQBQNfr-8" value="" style="outlineConnect=0;dashed=0;verticalLabelPosition=bottom;verticalAlign=top;align=center;html=1;shape=mxgraph.aws3.internet_gateway;fillColor=#F58534;gradientColor=none;" vertex="1" parent="1">
          <mxGeometry x="379" y="190" width="41" height="40" as="geometry" />
        </mxCell>
        <mxCell id="RokHzbXK8KdU9gQBQNfr-36" style="edgeStyle=orthogonalEdgeStyle;rounded=0;orthogonalLoop=1;jettySize=auto;html=1;" edge="1" parent="1" source="RokHzbXK8KdU9gQBQNfr-9" target="RokHzbXK8KdU9gQBQNfr-7">
          <mxGeometry relative="1" as="geometry" />
        </mxCell>
        <mxCell id="RokHzbXK8KdU9gQBQNfr-37" value="Connect to Elastic/Kibana via Web GUI" style="edgeLabel;html=1;align=center;verticalAlign=middle;resizable=0;points=[];" vertex="1" connectable="0" parent="RokHzbXK8KdU9gQBQNfr-36">
          <mxGeometry x="0.1087" y="2" relative="1" as="geometry">
            <mxPoint x="-16" as="offset" />
          </mxGeometry>
        </mxCell>
        <mxCell id="RokHzbXK8KdU9gQBQNfr-9" value="SOC Analyst Laptop" style="sketch=0;pointerEvents=1;shadow=0;dashed=0;html=1;strokeColor=none;fillColor=#005F4B;labelPosition=center;verticalLabelPosition=bottom;verticalAlign=top;align=center;outlineConnect=0;shape=mxgraph.veeam2.laptop;" vertex="1" parent="1">
          <mxGeometry x="70" y="82" width="68" height="44" as="geometry" />
        </mxCell>
        <mxCell id="RokHzbXK8KdU9gQBQNfr-10" value="&lt;div&gt;Attacker Laptop&lt;/div&gt;&lt;div&gt;Kali Linux&lt;br&gt;&lt;/div&gt;" style="sketch=0;pointerEvents=1;shadow=0;dashed=0;html=1;strokeColor=none;fillColor=#FF0000;labelPosition=center;verticalLabelPosition=bottom;verticalAlign=top;align=center;outlineConnect=0;shape=mxgraph.veeam2.laptop;" vertex="1" parent="1">
          <mxGeometry x="728.5" y="45" width="68" height="44" as="geometry" />
        </mxCell>
        <mxCell id="RokHzbXK8KdU9gQBQNfr-12" value="VULTR" style="text;html=1;align=center;verticalAlign=middle;whiteSpace=wrap;rounded=0;" vertex="1" parent="1">
          <mxGeometry x="120" y="214" width="60" height="30" as="geometry" />
        </mxCell>
        <mxCell id="RokHzbXK8KdU9gQBQNfr-30" value="&lt;div align=&quot;left&quot;&gt;Private Network: 172.31.0.0/24&lt;/div&gt;&lt;div align=&quot;left&quot;&gt;IP Range: 172.31.0.1-254&lt;/div&gt;&lt;div align=&quot;left&quot;&gt;Subnet Mask: 255.255.255.0&lt;br&gt;&lt;/div&gt;" style="text;html=1;align=center;verticalAlign=middle;whiteSpace=wrap;rounded=0;" vertex="1" parent="1">
          <mxGeometry x="120" y="310" width="195" height="30" as="geometry" />
        </mxCell>
        <mxCell id="RokHzbXK8KdU9gQBQNfr-34" value="Text" style="text;html=1;align=center;verticalAlign=middle;whiteSpace=wrap;rounded=0;" vertex="1" parent="1">
          <mxGeometry x="390" y="280" width="60" height="30" as="geometry" />
        </mxCell>
        <mxCell id="RokHzbXK8KdU9gQBQNfr-35" value="Internet" style="text;html=1;align=center;verticalAlign=middle;whiteSpace=wrap;rounded=0;" vertex="1" parent="1">
          <mxGeometry x="370.5" y="89" width="60" height="30" as="geometry" />
        </mxCell>
        <mxCell id="RokHzbXK8KdU9gQBQNfr-39" style="rounded=0;orthogonalLoop=1;jettySize=auto;html=1;entryX=0.875;entryY=0.5;entryDx=0;entryDy=0;entryPerimeter=0;" edge="1" parent="1" source="RokHzbXK8KdU9gQBQNfr-10" target="RokHzbXK8KdU9gQBQNfr-7">
          <mxGeometry relative="1" as="geometry" />
        </mxCell>
        <mxCell id="RokHzbXK8KdU9gQBQNfr-40" style="rounded=0;orthogonalLoop=1;jettySize=auto;html=1;entryX=0.96;entryY=0.7;entryDx=0;entryDy=0;entryPerimeter=0;" edge="1" parent="1" source="RokHzbXK8KdU9gQBQNfr-6" target="RokHzbXK8KdU9gQBQNfr-7">
          <mxGeometry relative="1" as="geometry" />
        </mxCell>
        <mxCell id="RokHzbXK8KdU9gQBQNfr-41" value="&lt;div align=&quot;left&quot;&gt;&lt;b&gt;&lt;font style=&quot;font-size: 17px;&quot;&gt;Logical diagram provides a better understanding of how things are going to flow and what our environment looks like.&lt;/font&gt;&lt;/b&gt;&lt;br&gt;&lt;/div&gt;" style="text;html=1;align=center;verticalAlign=middle;whiteSpace=wrap;rounded=0;" vertex="1" parent="1">
          <mxGeometry x="210" y="730" width="430" height="30" as="geometry" />
        </mxCell>
      </root>
    </mxGraphModel>
  </diagram>
</mxfile>
